<?xml version="1.0" encoding="UTF-8" standalone="no"?>
<!-- Created with Inkscape (http://www.inkscape.org/) -->

<svg
   version="1.1"
   id="svg2"
   width="1440"
   height="1440"
   viewBox="0 0 1440 1440"
   sodipodi:docname="tt logo.ai"
   xmlns:inkscape="http://www.inkscape.org/namespaces/inkscape"
   xmlns:sodipodi="http://sodipodi.sourceforge.net/DTD/sodipodi-0.dtd"
   xmlns="http://www.w3.org/2000/svg"
   xmlns:svg="http://www.w3.org/2000/svg">
  <defs
     id="defs6">
    <clipPath
       clipPathUnits="userSpaceOnUse"
       id="clipPath26">
      <path
         d="M 0,1080 H 1080 V 0 H 0 Z"
         id="path24" />
    </clipPath>
  </defs>
  <sodipodi:namedview
     id="namedview4"
     pagecolor="#ffffff"
     bordercolor="#000000"
     borderopacity="0.25"
     inkscape:showpageshadow="2"
     inkscape:pageopacity="0.0"
     inkscape:pagecheckerboard="0"
     inkscape:deskcolor="#d1d1d1" />
  <g
     id="g8"
     inkscape:groupmode="layer"
     inkscape:label="tt logo"
     transform="matrix(1.3333333,0,0,-1.3333333,0,1440)">
    <path
       d="M 0,0 H 1080 V 1080 H 0 Z"
       style="fill:#100f0d;fill-opacity:1;fill-rule:nonzero;stroke:none"
       id="path10" />
    <g
       id="g12"
       transform="translate(227.0105,275.909)">
      <path
         d="M 0,0 V 66.121 H -44.873 V 96.805 H 82.616 V 66.121 H 37.743 L 37.743,0 Z"
         style="fill:#ffffff;fill-opacity:1;fill-rule:nonzero;stroke:none"
         id="path14" />
    </g>
    <g
       id="g16"
       transform="translate(361.0678,275.909)">
      <path
         d="M 0,0 V 66.121 H -44.873 V 96.805 H 82.616 V 66.121 H 37.743 L 37.743,0 Z"
         style="fill:#ffffff;fill-opacity:1;fill-rule:nonzero;stroke:none"
         id="path18" />
    </g>
    <g
       id="g20">
      <g
         id="g22"
         clip-path="url(#clipPath26)">
        <g
           id="g28"
           transform="translate(573.9232,298.9579)">
          <path
             d="M 0,0 C 3.242,0 5.906,3.241 5.906,6.482 5.906,9.724 3.242,12.965 0,12.965 H -50.779 V 0 Z M -50.779,50.779 V 37.742 h 43.721 c 3.241,0 5.906,3.314 5.906,6.555 0,3.241 -2.665,6.482 -5.906,6.482 z M 41.344,2.953 C 41.56,-13.973 27.299,-23.049 10.66,-23.049 H -88.522 V 73.756 H 3.529 C 20.312,73.828 34.501,64.681 34.286,47.826 34.286,38.535 29.964,31.404 23.049,27.01 33.997,23.481 41.344,15.126 41.344,2.953"
             style="fill:#ffffff;fill-opacity:1;fill-rule:nonzero;stroke:none"
             id="path30" />
        </g>
        <g
           id="g32"
           transform="translate(682.9149,316.1003)">
          <path
             d="M 0,0 H 26.578 L 13.325,28.595 Z M -9.148,56.614 H 35.726 L 87.658,-40.191 H 45.161 l -7.635,16.566 h -48.474 l -7.635,-16.566 H -61.08 Z"
             style="fill:#ffffff;fill-opacity:1;fill-rule:nonzero;stroke:none"
             id="path34" />
        </g>
        <g
           id="g36"
           transform="translate(814.8832,344.4793)">
          <path
             d="m 0,0 v -16.495 h 46.026 c 2.305,0 4.249,0.793 5.834,2.378 1.657,1.656 2.449,3.601 2.449,5.834 0,4.61 -3.673,8.283 -8.283,8.283 z m 55.533,28.307 c 19.952,0.216 36.878,-16.567 36.591,-36.59 0,-7.275 -1.945,-13.902 -5.835,-19.808 -3.817,-5.834 -8.931,-10.3 -15.27,-13.253 L 92.124,-68.498 H 51.932 L 33.709,-44.873 H 0 v -23.625 h -37.743 v 96.805 z"
             style="fill:#ffffff;fill-opacity:1;fill-rule:nonzero;stroke:none"
             id="path38" />
        </g>
        <g
           id="g40"
           transform="translate(423.9312,700.679)">
          <path
             d="m 0,0 c 0,0 -15.303,3.325 -29.941,-3.994 -14.638,-7.318 -17.299,-27.911 -17.299,-27.911 0,0 -7.318,-20.658 -16.633,-20.658 -9.315,0 -8.65,11.31 -27.279,3.992 -18.63,-7.319 -48.57,-64.283 -29.275,-89.692 0,0 -1.33,47.775 23.286,53.765 24.618,5.986 29.941,0 29.941,0 0,0 -6.653,-5.324 -6.653,-15.97 0,-10.646 1.33,-17.298 1.33,-17.298 0,0 7.319,37.259 27.28,45.242 19.96,7.985 15.968,5.324 25.948,5.324 9.98,0 11.31,23.286 -13.307,18.629"
             style="fill:#ffffff;fill-opacity:1;fill-rule:nonzero;stroke:none"
             id="path42" />
        </g>
        <g
           id="g44"
           transform="translate(393.4908,579.2526)">
          <path
             d="m 0,0 c 0,0 -28.193,-68.112 7.485,-103.793 0,0 4.991,7.985 4.991,17.964 0,0 1.662,-33.433 11.31,-37.923 9.647,-4.492 -7.568,-22.372 0,-29.941 7.569,-7.569 32.103,-22.955 32.103,-22.955 0,0 -37.132,13.594 -48.404,24.865 -11.271,11.271 -4.49,27.532 -4.49,27.532 0,0 -2.995,-10.979 -20.46,22.455 C -34.93,-68.363 -18.962,-7.983 0,0"
             style="fill:#ffffff;fill-opacity:1;fill-rule:nonzero;stroke:none"
             id="path46" />
        </g>
        <g
           id="g48"
           transform="translate(435.4078,576.2585)">
          <path
             d="M 0,0 C 0,0 -21.457,-10.977 -21.457,-33.932 -21.457,-56.885 0,-76.348 0,-76.348 c 0,0 -25.199,51.15 0,76.348"
             style="fill:#ffffff;fill-opacity:1;fill-rule:nonzero;stroke:none"
             id="path50" />
        </g>
        <g
           id="g52"
           transform="translate(479.3204,437.0376)">
          <path
             d="m 0,0 c 0,0 6.985,-20.958 20.958,-23.952 13.972,-2.995 19.961,-3.493 19.961,-3.493 0,0 -16.468,-5.49 -32.935,0 -16.468,5.489 -18.962,14.97 -18.962,14.97 0,0 -0.998,-9.481 -15.969,0 -14.97,9.481 -11.477,31.935 -11.477,31.935 0,0 -15.968,-25.448 5.489,-39.92 21.457,-14.471 25.033,-16.161 31.326,-22.454 0,0 9.094,-5.988 51.01,0 l 69.861,-0.501 c 0,0 21.457,10.805 21.457,33.847 0,0 -12.475,-22.369 -24.451,-22.369 -11.976,0 -8.483,10.48 -29.941,10.48 -21.457,0 -26.447,-4.492 -26.447,-4.492 0,0 -14.47,12.891 -30.439,12.891 C 13.473,-13.058 0,-4.991 0,0"
             style="fill:#ffffff;fill-opacity:1;fill-rule:nonzero;stroke:none"
             id="path54" />
        </g>
        <g
           id="g56"
           transform="translate(607.0659,595.7211)">
          <path
             d="m 0,0 c 0,0 23.203,9.23 36.426,-3.994 13.224,-13.221 11.478,-32.434 11.478,-32.434 0,0 10.729,0.75 18.962,-7.486 8.234,-8.233 11.976,-43.911 -16.966,-54.389 0,0 9.482,-10.979 -9.98,-15.472 0,0 10.479,17.466 5.988,33.935 -4.491,16.466 -14.471,16.466 -14.471,16.466 0,0 12.907,14.472 4.957,33.433 C 28.442,-10.979 22.954,-2.994 0,0"
             style="fill:#ffffff;fill-opacity:1;fill-rule:nonzero;stroke:none"
             id="path58" />
        </g>
        <g
           id="g60"
           transform="translate(652.9742,706.0007)">
          <path
             d="m 0,0 c 0,0 -7.361,-8.359 5.488,-21.209 12.85,-12.847 21.391,-16.018 21.391,-16.018 0,0 -1.929,-5.687 3.061,-10.678 0,0 -43.913,11.976 -75.848,-7.484 -31.937,-19.463 -30.44,-36.428 -30.44,-36.428 0,0 27.71,33.434 57.019,33.434 29.308,0 84.199,-43.413 96.674,-71.359 12.476,-27.944 0.25,-43.661 9.482,-52.894 9.231,-9.23 22.456,0 22.456,0 0,0 10.477,-1.997 4.49,-11.976 -5.988,-9.98 -13.973,-2.994 -13.973,-11.478 0,-8.481 2.995,-34.431 -4.989,-52.894 -7.984,-18.463 -19.96,-25.448 -19.96,-25.448 0,0 33.432,6.487 42.915,34.929 9.481,28.443 5.488,47.407 5.488,47.407 0,0 12.474,2.493 12.474,11.976 0,9.481 -5.988,17.962 -5.988,17.962 0,0 2.495,2.994 5.988,20.46 3.495,17.466 -13.472,56.389 -38.422,56.389 0,0 -1.997,25.448 -22.455,21.457 0,0 4.989,25.348 -15.969,36.625 -20.958,11.278 -23.453,5.29 -23.453,5.29 0,0 -5.489,13.973 -14.472,13.973 C 11.976,-17.964 0,0 0,0"
             style="fill:#ffffff;fill-opacity:1;fill-rule:nonzero;stroke:none"
             id="path62" />
        </g>
        <g
           id="g64"
           transform="translate(672.9343,717.977)">
          <path
             d="m 0,0 c 0,0 12.539,4.298 22.456,-5.618 9.915,-9.916 7.484,-25.32 0,-25.32 C 14.97,-30.938 11.976,0 0,0"
             style="fill:#ffffff;fill-opacity:1;fill-rule:nonzero;stroke:none"
             id="path66" />
        </g>
        <g
           id="g68"
           transform="translate(748.2836,668.7742)">
          <path
             d="m 0,0 c 0,0 12.974,-5.189 22.456,-14.67 9.482,-9.481 4.491,-34.431 4.491,-34.431 0,0 -15.469,51.296 -26.947,49.101"
             style="fill:#ffffff;fill-opacity:1;fill-rule:nonzero;stroke:none"
             id="path70" />
        </g>
        <g
           id="g72"
           transform="translate(698.3828,570.2704)">
          <path
             d="m 0,0 c 0,0 10.979,-21.956 18.464,-37.425 7.485,-15.469 -0.374,-70.982 -9.231,-79.84 -8.858,-8.858 -25.201,-32.103 -35.68,-29.026 -10.479,3.077 4.856,13.058 7.918,22.04 0,0 16.533,14.472 11.045,35.927 0,0 -0.101,-10.012 -11.045,-20.956 -10.946,-10.947 -24.884,-4.492 -24.884,-4.492 0,0 11.684,-20.839 3.493,-29.029 -8.19,-8.189 -17.714,-9.644 -25.449,-17.378 -7.735,-7.735 -5.988,-13.973 -5.988,-13.973 h 247.505 c 0,0 -1.495,9.981 -15.466,9.981 -13.974,0 -15.472,-3.495 -15.472,-3.495 0,0 8.235,7.735 2.495,13.475 -5.737,5.737 -8.483,1.996 -8.483,1.996 0,0 5.49,5.986 5.49,18.464 0,12.474 -17.464,19.959 -17.464,19.959 0,0 13.472,-5.989 8.481,-19.461 -4.988,-13.474 -16.964,-15.469 -16.964,-15.469 0,0 4.739,-5.74 0,-10.48 -4.741,-4.741 -18.464,0 -18.464,0 0,0 5.4,16.799 -9.527,12.891 -14.924,-3.909 -21.412,-18.378 -21.412,-18.378 0,0 -10.479,6.486 -22.954,2.493 0,0 14.785,5.489 17.622,13.474 2.837,7.983 3.835,10.478 3.835,10.478 0,0 -20.459,-20.459 -37.924,-24.949 -17.465,-4.493 -32.435,1.996 -32.435,1.996 0,0 18.463,2.827 22.954,14.886 4.491,12.059 1.996,18.047 1.996,18.047 0,0 21.457,3.495 21.457,27.946 0,24.451 -11.477,29.938 -11.477,29.938 0,0 -0.998,50.9 -32.436,70.36"
             style="fill:#ffffff;fill-opacity:1;fill-rule:nonzero;stroke:none"
             id="path74" />
        </g>
        <g
           id="g76"
           transform="translate(748.2836,581.6935)">
          <path
             d="m 0,0 c 8.302,-21.309 0,-48.689 0,-48.689 0,0 14.129,3.41 14.129,19.576 0,16.166 2.536,8.751 2.536,26.672 C 16.665,15.482 10.094,11.499 0,26.59 -10.094,41.682 -2.847,48.458 -28.489,48.458 -67.443,48.458 -13.392,34.376 0,0"
             style="fill:#e8e8e7;fill-opacity:1;fill-rule:nonzero;stroke:none"
             id="path78" />
        </g>
        <g
           id="g80"
           transform="translate(338.8507,429.6646)">
          <path
             d="m 0,0 c 0,0 -13.161,0.007 -23.48,10.326 -10.319,10.319 -2.508,21.448 -2.508,21.448 0,0 -17.281,-17.838 -11.428,-31.495 5.853,-13.658 18.569,-5.964 18.569,-5.964 0,0 -15.503,-19.679 12.158,-29.434 2.991,-1.056 6.006,-2.099 9.01,-3.124 l 34.502,0.648 C -19.885,-28.695 0.075,-0.224 0,0"
             style="fill:#e8e8e7;fill-opacity:1;fill-rule:nonzero;stroke:none"
             id="path82" />
        </g>
        <g
           id="g84"
           transform="translate(278.8583,402.6047)">
          <path
             d="m 0,0 c -6.483,-3.083 -18.976,-8.858 -27.696,-12.873 l 59.007,1.108 C 27.174,1.572 22.632,8.063 18.409,12.288 12.841,17.855 10.591,5.041 0,0"
             style="fill:#e8e8e7;fill-opacity:1;fill-rule:nonzero;stroke:none"
             id="path86" />
        </g>
        <g
           id="g88"
           transform="translate(682.8865,404.6712)">
          <path
             d="m 0,0 c 10.104,1.86 11.079,16.897 11.079,16.897 0,0 14.494,-2.774 18.953,8.375 4.46,11.149 2.602,28.046 2.602,28.046 0,0 -4.231,-13.411 -22.67,-31.85 C -17.022,-5.52 -17.838,23.482 -36.117,5.204 -41.896,-0.575 -44.871,-5.509 -46.339,-8.553 h 16.54 C -24.968,5.936 -10.104,-1.857 0,0"
             style="fill:#e8e8e7;fill-opacity:1;fill-rule:nonzero;stroke:none"
             id="path90" />
        </g>
        <g
           id="g92"
           transform="translate(297.2669,483.1941)">
          <path
             d="m 0,0 c 0,0 -10.976,2.121 -21.196,-12.373 -10.22,-14.493 -3.158,-28.614 -3.158,-28.614 0,0 -15.609,25.27 0.371,34.189 C -8.003,2.121 0,0 0,0"
             style="fill:#ffffff;fill-opacity:1;fill-rule:nonzero;stroke:none"
             id="path94" />
        </g>
        <g
           id="g96"
           transform="translate(310.4462,513.9296)">
          <path
             d="m 0,0 c 0,0 -11.655,-3.88 -11.655,-14.019 0,-10.136 4.594,-16.497 4.594,-16.497 0,0 -7.804,4.46 -7.804,15.258 C -14.865,-4.46 0,0 0,0"
             style="fill:#ffffff;fill-opacity:1;fill-rule:nonzero;stroke:none"
             id="path98" />
        </g>
        <g
           id="g100"
           transform="translate(331.629,570.2704)">
          <path
             d="m 0,0 c 0,0 3.336,-30.701 -6.696,-40.732 -10.031,-10.03 -17.088,-6.317 -17.088,-6.317 0,0 13.737,2.229 17.088,12.263 C -3.345,-24.752 0,0 0,0"
             style="fill:#ffffff;fill-opacity:1;fill-rule:nonzero;stroke:none"
             id="path102" />
        </g>
        <g
           id="g104"
           transform="translate(862.7938,411.0948)">
          <path
             d="m 0,0 c 0,-0.052 -0.009,-0.041 0,0 m 51.057,-14.28 c -6.733,3.497 -22.976,10.234 -26.782,3.867 -3.327,1.655 -5.833,5.339 -9.211,7.911 C 9.688,1.877 6.276,1.579 0.33,0.945 0.582,1.474 0.941,2.043 1.327,2.681 5.644,9.694 -1.624,16.627 -8.738,16.773 c 6.246,19.607 -1.615,36.641 -19.706,30.122 18.687,5.23 24.392,-11.859 17.5,-30.779 l -0.546,-1.503 c 0.841,-0.03 3.115,1.154 7.434,-1.156 8.738,-4.723 2.421,-10.543 1.931,-13.037 0.026,-0.128 -0.24,-0.431 0.199,-1.232 1.39,-2.047 7.64,3.059 15.666,-3.345 4.333,-3.427 6.593,-7.083 10.725,-8.523 l 1.067,-0.372 c 0.193,0.222 -0.418,3.414 5.136,3.36 7.215,0.017 16.14,-4.266 20.284,-5.993 8.864,2.825 8.894,2.927 25.682,-2.536 -4.11,1.685 -18.238,6.232 -25.577,3.941"
             style="fill:#ffffff;fill-opacity:1;fill-rule:nonzero;stroke:none"
             id="path106" />
        </g>
        <g
           id="g108"
           transform="translate(246.6759,442.562)">
          <path
             d="m 0,0 c -16.375,-8.27 -25.994,-17.361 -17.623,-31.426 -8.766,-5.694 -30.109,-11.277 -40.21,-13.722 -1.023,3.61 -4.592,4.487 -6.907,2.974 -1.755,-1.228 -2.962,-3.103 -6.101,-5.33 -4.219,-3.005 -28.093,-13.159 -33.459,-7.243 -2.708,3.07 -1.665,6.962 3.92,8.638 -2.658,-0.664 -5.691,-2.386 -5.723,-5.11 -0.018,-12.667 31.289,-2.487 39.386,5.03 1.942,1.766 2.74,2.97 4.325,2.959 3.054,-0.05 2.946,-3.957 3.027,-4.222 0.264,0.078 33.715,7.371 43.92,14.85 l 0.769,0.564 c -0.039,0.225 -8.537,11.487 -0.354,19.003 8.241,8.101 18.124,12.386 18.567,12.641 -0.05,0.226 -15.821,9.097 -3.725,34.1 C 5.46,45.658 17.327,52.164 29.395,52.001 -0.993,53.996 -15.73,14.613 0,0"
             style="fill:#ffffff;fill-opacity:1;fill-rule:nonzero;stroke:none"
             id="path110" />
        </g>
        <g
           id="g112"
           transform="translate(479.0286,494.6369)">
          <path
             d="m 0,0 c 0,0 -7.247,-23.127 10.591,-35.232 17.839,-12.105 41.51,-5.396 41.51,-5.396 0,0 -48.756,3.789 -52.101,40.628"
             style="fill:#e8e8e7;fill-opacity:1;fill-rule:nonzero;stroke:none"
             id="path114" />
        </g>
        <g
           id="g116"
           transform="translate(499.0965,556.0012)">
          <path
             d="m 0,0 c 0,0 -36.791,1.387 -36.791,-22.997 0,-24.386 18.395,-29.398 18.395,-29.398 0,0 -34.561,39.016 18.396,52.395"
             style="fill:#e8e8e7;fill-opacity:1;fill-rule:nonzero;stroke:none"
             id="path118" />
        </g>
        <g
           id="g120"
           transform="translate(458.3619,513.9296)">
          <path
             d="M 0,0 C 0,0 -6.892,-19.295 6.173,-25.398 6.173,-25.398 -4.141,-14.851 0,0"
             style="fill:#e8e8e7;fill-opacity:1;fill-rule:nonzero;stroke:none"
             id="path122" />
        </g>
        <g
           id="g124"
           transform="translate(527.6121,467.895)">
          <path
             d="m 0,0 c 0,0 42.907,-9.503 59.038,12.266 16.13,21.768 5.539,35.071 5.539,35.071 C 64.577,47.337 53.043,0 0,0"
             style="fill:#e8e8e7;fill-opacity:1;fill-rule:nonzero;stroke:none"
             id="path126" />
        </g>
        <g
           id="g128"
           transform="translate(392.9183,751.4185)">
          <path
             d="m 0,0 -7.365,33.518 c -1.123,5.11 2.106,10.245 7.197,11.446 l 20.081,4.414 c 5.19,1.14 10.339,-2.154 11.479,-7.343 L 38.757,8.516 Z"
             style="fill:#100f0d;fill-opacity:1;fill-rule:nonzero;stroke:none"
             id="path130" />
        </g>
        <g
           id="g132"
           transform="translate(405.2189,787.7148)">
          <path
             d="m 0,0 7.416,1.63 5.925,-26.965 6.917,1.52 L 14.01,4.622 C 13.484,7.013 11.12,8.526 8.729,8 L -11.206,3.619 c -2.391,-0.525 -3.904,-2.889 -3.378,-5.28 l 6.248,-28.437 14.261,3.134 z"
             style="fill:#ffffff;fill-opacity:1;fill-rule:nonzero;stroke:none"
             id="path134" />
        </g>
        <g
           id="g136"
           transform="translate(323.8281,692.5494)">
          <path
             d="M 0,0 0.039,0.059 -0.042,0.051 Z m 15.991,-186.785 -45.107,205.276 41.064,9.023 c 3.99,0.878 7.95,-1.655 8.828,-5.646 l 41.926,-190.802 c 0.864,-3.93 -1.62,-7.878 -5.535,-8.802 -0.001,0 -41.176,-9.049 -41.176,-9.049"
             style="fill:#100f0d;fill-opacity:1;fill-rule:nonzero;stroke:none"
             id="path138" />
        </g>
        <g
           id="g140"
           transform="translate(355.312,483.3059)">
          <path
             d="m 0,0 c -2.69,-0.591 -5.45,-0.099 -7.77,1.385 -2.32,1.484 -3.923,3.783 -4.515,6.473 l -4.196,19.096 41.065,9.023 c 1.527,0.36 2.467,1.856 2.14,3.345 l -41.926,190.801 c -0.161,0.729 -0.598,1.354 -1.232,1.76 -0.634,0.405 -1.385,0.54 -2.114,0.38 l -41.064,-9.023 -4.042,18.396 c -1.202,5.469 2.253,10.964 7.702,12.249 L 77.83,283.283 c 5.553,1.221 11.064,-2.305 12.285,-7.858 L 141.484,41.647 C 142.686,36.179 139.231,30.684 133.782,29.398 133.782,29.398 0,0 0,0"
             style="fill:#100f0d;fill-opacity:1;fill-rule:nonzero;stroke:none"
             id="path142" />
        </g>
        <g
           id="g144"
           transform="translate(328.9673,693.0236)">
          <path
             d="m 0,0 c 0.211,-2.308 -1.204,-4.52 -3.388,-5.297 -3.204,-1.14 -6.586,1.023 -6.894,4.41 -0.211,2.308 1.204,4.52 3.388,5.297 C -3.69,5.549 -0.309,3.387 0,0 m 34.712,-157.969 c 0.21,-2.308 -1.205,-4.52 -3.388,-5.296 -3.205,-1.14 -6.586,1.023 -6.895,4.41 -0.21,2.308 1.205,4.52 3.388,5.296 3.205,1.14 6.586,-1.022 6.895,-4.41 m 17.769,-12.555 -41.926,190.8 c -0.261,1.189 -1.441,1.944 -2.63,1.683 l -35.982,-7.907 42.873,-195.113 35.983,7.907 c 1.191,0.262 1.944,1.439 1.682,2.63"
             style="fill:#ffffff;fill-opacity:1;fill-rule:nonzero;stroke:none"
             id="path146" />
        </g>
        <g
           id="g148"
           transform="translate(483.0703,525.0026)">
          <path
             d="m 0,0 -7.416,-1.63 -10e-4,0.004 -115.614,-25.405 114.038,32.575 -46.932,213.586 -8.968,-1.396 34.88,-178.029 -42.416,176.856 -100.686,-15.666 123.03,27.034 z m -48.812,236.505 -133.626,-29.362 c -2.756,-0.606 -4.499,-3.331 -3.893,-6.087 l 2.925,-13.314 35.983,7.906 c 4.315,0.948 8.595,-1.791 9.544,-6.105 L -95.954,-1.258 c 0.949,-4.314 -1.79,-8.595 -6.104,-9.543 l -35.983,-7.907 3.079,-14.014 c 0.606,-2.756 3.331,-4.499 6.087,-3.893 L 4.751,-7.253 c 2.756,0.606 4.499,3.331 3.893,6.087 l -51.369,233.778 c -0.606,2.756 -3.331,4.499 -6.087,3.893"
             style="fill:#ffffff;fill-opacity:1;fill-rule:nonzero;stroke:none"
             id="path150" />
        </g>
        <g
           id="g152"
           transform="translate(674.7119,754.4875)">
          <path
             d="m 0,0 7.365,33.518 c 1.123,5.11 -2.106,10.245 -7.197,11.446 l -20.081,4.414 c -5.189,1.14 -10.339,-2.154 -11.479,-7.343 L -38.757,8.516 Z"
             style="fill:#100f0d;fill-opacity:1;fill-rule:nonzero;stroke:none"
             id="path154" />
        </g>
        <g
           id="g156"
           transform="translate(662.4113,790.7837)">
          <path
             d="m 0,0 -7.416,1.63 -5.925,-26.965 -6.917,1.52 6.248,28.437 c 0.526,2.391 2.89,3.904 5.281,3.378 L 11.206,3.619 c 2.391,-0.525 3.904,-2.889 3.378,-5.28 l -6.248,-28.437 -14.261,3.134 z"
             style="fill:#ffffff;fill-opacity:1;fill-rule:nonzero;stroke:none"
             id="path158" />
        </g>
        <g
           id="g160"
           transform="translate(743.8444,695.6695)">
          <path
             d="m 0,0 -0.081,0.008 0.039,-0.059 z m -57.209,-177.787 c -3.915,0.923 -6.399,4.872 -5.535,8.802 l 41.926,190.802 c 0.877,3.991 4.838,6.523 8.828,5.646 L 29.074,18.44 -16.033,-186.836 c 0,0 -41.176,9.049 -41.176,9.049"
             style="fill:#100f0d;fill-opacity:1;fill-rule:nonzero;stroke:none"
             id="path162" />
        </g>
        <g
           id="g164"
           transform="translate(712.3182,486.3748)">
          <path
             d="m 0,0 c 2.69,-0.591 5.45,-0.099 7.77,1.385 2.32,1.484 3.923,3.783 4.515,6.473 l 4.196,19.096 -41.065,9.023 c -1.527,0.36 -2.467,1.856 -2.14,3.345 l 41.926,190.801 c 0.161,0.729 0.598,1.354 1.232,1.76 0.634,0.405 1.385,0.54 2.114,0.38 l 41.064,-9.023 4.042,18.396 c 1.202,5.469 -2.253,10.964 -7.702,12.249 L -77.83,283.283 c -5.553,1.221 -11.064,-2.305 -12.285,-7.858 L -141.484,41.647 c -1.202,-5.468 2.253,-10.963 7.702,-12.249 C -133.782,29.398 0,0 0,0"
             style="fill:#100f0d;fill-opacity:1;fill-rule:nonzero;stroke:none"
             id="path166" />
        </g>
        <g
           id="g168"
           transform="translate(745.5574,700.5021)">
          <path
             d="m 0,0 c 2.183,-0.776 3.598,-2.988 3.388,-5.296 -0.309,-3.388 -3.69,-5.55 -6.895,-4.41 -2.183,0.776 -3.598,2.988 -3.387,5.297 C -6.585,-1.023 -3.204,1.14 0,0 m -34.711,-157.968 c 2.183,-0.777 3.598,-2.989 3.387,-5.296 -0.309,-3.388 -3.689,-5.55 -6.894,-4.411 -2.183,0.777 -3.598,2.989 -3.388,5.297 0.309,3.387 3.69,5.55 6.895,4.41 m -22.983,-19.595 35.983,-7.907 42.874,195.112 -35.983,7.907 c -1.189,0.261 -2.368,-0.493 -2.63,-1.682 l -41.926,-190.801 c -0.261,-1.19 0.492,-2.368 1.682,-2.629"
             style="fill:#ffffff;fill-opacity:1;fill-rule:nonzero;stroke:none"
             id="path170" />
        </g>
        <g
           id="g172"
           transform="translate(634.6445,756.0005)">
          <path
             d="m 0,0 123.03,-27.034 -100.686,15.666 -42.416,-176.856 34.881,178.029 -8.968,1.396 -46.933,-213.586 114.038,-32.575 -115.613,25.405 -10e-4,-0.004 -7.417,1.63 z m -7.359,4.683 -51.37,-233.778 c -0.606,-2.756 1.138,-5.481 3.894,-6.087 l 133.626,-29.362 c 2.756,-0.606 5.48,1.137 6.086,3.893 l 3.08,14.014 -35.983,7.907 c -4.314,0.948 -7.053,5.229 -6.105,9.543 l 41.926,190.801 c 0.948,4.314 5.229,7.053 9.544,6.105 l 35.982,-7.906 2.926,13.314 c 0.605,2.756 -1.138,5.481 -3.894,6.087 L -1.273,8.576 C -4.029,9.182 -6.754,7.438 -7.359,4.683"
             style="fill:#ffffff;fill-opacity:1;fill-rule:nonzero;stroke:none"
             id="path174" />
        </g>
        <g
           id="g176"
           transform="translate(698.5467,600.5827)">
          <path
             d="m 0,0 c 0.384,-13.444 7.112,-13.305 9.323,-13.259 2.53,0.052 5.482,0.814 8.773,2.265 5.929,2.614 11.793,5.257 18.335,8.213 L -0.24,10.681 C -0.167,6.835 -0.096,3.389 0,0"
             style="fill:#100f0d;fill-opacity:1;fill-rule:nonzero;stroke:none"
             id="path178" />
        </g>
        <g
           id="g180"
           transform="translate(757.673,603.8064)">
          <path
             d="M 0,0 V 0 C -0.85,0.31 -1.696,0.618 -2.543,0.926 -1.696,0.618 -0.85,0.31 0,0"
             style="fill:#100f0d;fill-opacity:1;fill-rule:nonzero;stroke:none"
             id="path182" />
        </g>
        <g
           id="g184"
           transform="translate(608.0349,619.72)">
          <path
             d="M 0,0 V 0 C 0.087,-4.236 0.184,-7.947 0.267,-11.358 0.184,-7.947 0.087,-4.236 0,0"
             style="fill:#100f0d;fill-opacity:1;fill-rule:nonzero;stroke:none"
             id="path186" />
        </g>
        <g
           id="g188"
           transform="translate(573.5637,605.1586)">
          <path
             d="M 0,0 C 9.795,4.138 19.496,8.236 29.637,12.519 19.496,8.236 9.795,4.138 0,0"
             style="fill:#100f0d;fill-opacity:1;fill-rule:nonzero;stroke:none"
             id="path190" />
        </g>
        <g
           id="g192"
           transform="translate(625.7528,482.3092)">
          <path
             d="M 0,0 C -0.002,-0.002 -0.004,-0.003 -0.006,-0.004 15.481,-11.628 30.698,-12.879 45.708,-4.182 30.703,-12.876 15.489,-11.627 0,0"
             style="fill:#100f0d;fill-opacity:1;fill-rule:nonzero;stroke:none"
             id="path194" />
        </g>
        <g
           id="g196"
           transform="translate(585.2712,578.8294)">
          <path
             d="M 0,0 C -1.777,0.554 -3.431,1.492 -5.168,2.188 -6.267,2.629 -7.368,3.07 -8.471,3.511 -7.368,3.07 -6.268,2.629 -5.168,2.188 -3.431,1.491 -1.777,0.554 0,-0.001 c 12.326,-3.844 23.251,4.152 23.231,17.054 -0.002,1.529 -0.017,3.06 -0.039,4.618 0.022,-1.558 0.037,-3.089 0.039,-4.618 C 23.251,4.151 12.326,-3.845 0,0"
             style="fill:#100f0d;fill-opacity:1;fill-rule:nonzero;stroke:none"
             id="path198" />
        </g>
        <g
           id="g200"
           transform="translate(648.7844,507.0063)">
          <path
             d="m 0,0 c -0.926,59.884 -2.237,119.765 -3.514,181.628 -3.968,-1.752 -7.913,-3.491 -11.844,-5.225 3.931,1.734 7.876,3.473 11.844,5.225 C -2.237,119.765 -0.926,59.885 0,0"
             style="fill:#100f0d;fill-opacity:1;fill-rule:nonzero;stroke:none"
             id="path202" />
        </g>
        <g
           id="g204"
           transform="translate(643.5573,498.3616)">
          <path
             d="M 0,0 C -2.408,-1.216 -4.88,-2.321 -7.423,-3.388 -4.88,-2.321 -2.408,-1.216 0,0 1.024,0.517 2.06,1.503 2.938,2.681 2.06,1.503 1.023,0.517 0,0"
             style="fill:#100f0d;fill-opacity:1;fill-rule:nonzero;stroke:none"
             id="path206" />
        </g>
        <g
           id="g208"
           transform="translate(651.1402,688.715)">
          <path
             d="m 0,0 c 0,0 0,0 -0.001,0 l 3.298,-159.831 c 0.149,-7.212 0.263,-12.694 0.749,-16.977 -0.486,4.283 -0.6,9.765 -0.748,16.977 z"
             style="fill:#100f0d;fill-opacity:1;fill-rule:nonzero;stroke:none"
             id="path210" />
        </g>
        <g
           id="g212"
           transform="translate(685.5562,490.6953)">
          <path
             d="M 0,0 C -0.715,-0.153 -1.05,-0.231 -1.285,-0.222 -1.05,-0.231 -0.715,-0.154 0,0"
             style="fill:#100f0d;fill-opacity:1;fill-rule:nonzero;stroke:none"
             id="path214" />
        </g>
        <g
           id="g216"
           transform="translate(761.095,597.55)">
          <path
             d="m 0,0 c -10.759,-12.312 -30.743,-17.159 -47.478,-23.315 -5.521,-2.03 -13.185,1.765 -21.494,3.171 0.568,-27.519 0.579,-54.849 1.978,-82.107 0.138,-2.685 -0.044,-7.856 -2.963,-13.166 -7.554,-13.743 -27.028,-15.675 -29.988,-15.965 -14.18,-1.392 -34.159,3.275 -44.844,17.824 -5.94,8.087 -5.795,14.854 -7.072,77.821 -0.084,4.13 -0.223,10.875 -0.305,14.794 -28.391,-13.145 -47.458,8.422 -69.992,14.568 -1.603,0.437 -2.983,4.63 -3.087,7.134 -0.567,13.703 -1.315,27.456 -0.595,41.117 0.203,3.854 4.339,9.205 8.034,10.902 32.143,14.758 64.523,29.013 97.049,42.91 4.195,1.792 10.217,2.253 14.393,0.678 C -72.828,83.722 -39.427,70.695 -6.302,57.016 -2.39,55.4 -0.382,49.15 2.457,45.013 2.681,44.688 2.522,44.086 2.51,43.614 2.139,28.671 7.566,8.659 0,0 M 10.12,29.403 C 9.691,34.394 9.286,39.112 9.38,43.309 l 10e-4,0.013 c 0.092,0.895 0.336,3.272 -1.256,5.581 -0.67,0.976 -1.361,2.258 -2.093,3.616 -2.223,4.125 -4.743,8.8 -9.71,10.851 -30.491,12.592 -63.287,25.489 -100.261,39.429 -2.598,0.98 -5.693,1.462 -8.949,1.395 -3.699,-0.076 -7.453,-0.852 -10.569,-2.184 -34.853,-14.891 -66.653,-28.951 -97.219,-42.985 -5.515,-2.533 -11.665,-9.883 -12.029,-16.787 -0.659,-12.498 -0.12,-25.099 0.402,-37.284 l 0.189,-4.48 c 0.005,-0.115 0.561,-11.415 8.147,-13.481 6.17,-1.683 12.221,-4.733 18.627,-7.961 11.02,-5.554 22.414,-11.296 36.137,-11.012 3.495,0.072 6.93,0.53 10.36,1.384 l 0.108,-5.282 c 0.125,-6.065 0.23,-12.13 0.336,-18.195 0.35,-20.082 -2.497,-38.91 1.389,-52.892 1.376,-4.953 3.276,-8.411 4.309,-10.128 3.169,-5.268 6.762,-8.431 7.822,-9.331 4.589,-3.896 8.91,-5.474 14.169,-7.338 4.534,-1.607 18.986,-6.575 33.344,-4.102 4.092,0.705 8.025,1.988 8.215,2.05 4.646,1.536 8.109,3.349 10.312,4.564 5.013,2.765 10.39,5.732 14.194,11.507 3.666,5.567 4.858,11.196 4.517,17.845 -0.994,19.363 -1.289,39.192 -1.575,58.368 -0.072,4.806 -0.145,9.714 -0.229,14.637 3.858,-1.038 7.535,-1.954 11.262,-1.877 1.994,0.041 3.867,0.379 5.565,1.003 3.028,1.114 6.131,2.173 9.416,3.293 15.186,5.179 30.89,10.534 40.866,21.951 7.153,8.186 6.03,21.272 4.943,33.926"
             style="fill:#100f0d;fill-opacity:1;fill-rule:nonzero;stroke:none"
             id="path218" />
        </g>
        <g
           id="g220"
           transform="translate(716.6423,589.5886)">
          <path
             d="m 0,0 c -3.291,-1.451 -6.242,-2.213 -8.773,-2.265 -2.211,-0.046 -8.938,-0.185 -9.323,13.259 -0.096,3.389 -0.166,6.835 -0.239,10.681 L 18.336,8.214 C 11.794,5.257 5.929,2.614 0,0 m 27.146,12.303 c -18.477,6.783 -34.904,12.812 -52.55,19.29 0,0 0,0 0,0 v -0.001 c 0.1,-4.869 0.172,-8.918 0.245,-12.606 0.057,-2.875 0.116,-5.532 0.192,-8.188 0.361,-12.667 6.125,-19.697 15.441,-19.932 3.604,-0.091 7.739,0.833 12.299,2.844 8.249,3.637 16.461,7.368 26.249,11.789 2.39,1.08 4.871,2.2 7.474,3.371 v 0.001 c -3.185,1.169 -6.293,2.31 -9.35,3.432"
             style="fill:#100f0d;fill-opacity:1;fill-rule:nonzero;stroke:none"
             id="path222" />
        </g>
        <g
           id="g224"
           transform="translate(745.6639,595.0881)">
          <path
             d="m 0,0 c -9.787,-4.422 -17.999,-8.153 -26.248,-11.79 -4.561,-2.011 -8.696,-2.934 -12.299,-2.843 -9.317,0.235 -15.081,7.264 -15.442,19.932 -0.076,2.656 -0.134,5.312 -0.192,8.188 -0.073,3.688 -0.144,7.736 -0.245,12.606 v 0 c 0,0 0,0 0,0.001 C -36.78,19.616 -20.353,13.586 -1.876,6.803 1.182,5.681 4.289,4.54 7.474,3.371 v 0 C 4.872,2.2 2.39,1.08 0,0 m -71.205,-115.09 c -0.999,-0.668 -1.998,-1.292 -2.998,-1.871 -15.01,-8.697 -30.227,-7.446 -45.714,4.178 0.002,0.001 0.004,0.003 0.006,0.004 -0.005,0.004 -0.01,0.007 -0.014,0.011 15.489,12.248 31.527,14.073 48.407,4.645 1.745,-0.975 3.501,-2.071 5.265,-3.288 -1.648,-1.347 -3.299,-2.573 -4.952,-3.679 m -65.961,146.644 c -2.155,-0.892 -4.299,-1.78 -6.431,-2.663 -4.326,-1.791 -8.611,-3.565 -12.876,-5.332 -4.266,-1.766 -8.513,-3.524 -12.765,-5.285 -11.32,-4.688 -22.685,-9.394 -34.562,-14.312 -0.288,13.981 -0.821,26.023 -0.558,38.048 0.056,2.588 2.39,6.431 4.682,7.468 28.717,12.986 57.573,25.675 87.439,38.843 3.931,1.734 7.876,3.474 11.844,5.226 1.276,-61.864 2.588,-121.745 3.513,-181.629 10e-4,-0.053 0.002,-0.107 0.003,-0.161 10e-4,-0.037 -0.004,-0.078 -0.004,-0.116 -0.016,-1.729 -0.972,-3.923 -2.287,-5.686 -0.879,-1.179 -1.915,-2.165 -2.939,-2.682 -2.408,-1.216 -4.88,-2.32 -7.423,-3.388 -5.769,-2.422 -11.948,-4.636 -18.876,-7.398 v 0.001 l -2.919,141.484 c -1.961,-0.811 -3.905,-1.616 -5.841,-2.418 m -0.035,-26.142 c 0.022,-1.558 0.037,-3.089 0.04,-4.617 0.02,-12.903 -10.906,-20.899 -23.231,-17.054 -1.778,0.554 -3.432,1.492 -5.169,2.188 -1.099,0.441 -2.199,0.882 -3.303,1.324 -0.967,0.387 -1.938,0.776 -2.914,1.166 -0.348,0.14 -0.699,0.28 -1.049,0.42 -0.723,0.289 -1.451,0.58 -2.183,0.873 -0.925,0.37 -1.858,0.743 -2.801,1.119 -2.06,0.823 -4.163,1.664 -6.332,2.53 -0.724,0.288 -1.454,0.58 -2.192,0.875 -3.743,1.494 -7.693,3.071 -11.953,4.772 h 0.001 c 0.354,0.15 0.704,0.298 1.057,0.447 4.864,2.055 9.611,4.06 14.287,6.035 0.044,0.019 0.088,0.037 0.132,0.056 2.181,0.921 4.346,1.836 6.505,2.748 1.405,0.593 2.807,1.185 4.206,1.776 9.795,4.138 19.496,8.236 29.636,12.52 1.601,0.676 3.209,1.355 4.835,2.042 v 0 c 0.087,-4.236 0.184,-7.947 0.267,-11.358 0.012,-0.487 0.023,-0.969 0.034,-1.444 0.013,-0.544 0.026,-1.081 0.037,-1.611 0.037,-1.653 0.067,-3.244 0.09,-4.807 M 17.941,46.076 c 0.012,0.472 0.171,1.073 -0.053,1.399 -2.839,4.137 -4.847,10.387 -8.759,12.003 -33.125,13.679 -66.526,26.706 -100.062,39.35 -4.176,1.575 -10.198,1.114 -14.393,-0.678 -32.526,-13.897 -64.906,-28.153 -97.049,-42.91 -3.695,-1.697 -7.831,-7.048 -8.034,-10.902 -0.72,-13.661 0.028,-27.414 0.595,-41.117 0.104,-2.504 1.484,-6.697 3.087,-7.134 22.534,-6.146 41.601,-27.713 69.992,-14.569 0.106,-3.17 0.254,-8.371 0.305,-14.793 0.26,-32.654 0.391,-48.98 -0.086,-53.394 0,0 -1.23,-11.376 1.805,-17.532 1.812,-3.676 4.177,-7.623 4.177,-7.623 0,-0.001 0.001,-0.002 0.001,-0.002 0.954,-1.484 2.43,-3.522 4.563,-5.618 2.013,-1.979 6.6,-5.963 16.534,-8.945 6.891,-2.068 17.692,-5.309 31.003,-1.933 5.259,1.334 18.073,4.584 23.907,15.366 2.918,5.393 3.095,10.6 2.963,13.167 -1.399,27.258 -1.41,54.587 -1.978,82.107 8.309,-1.406 15.973,-5.202 21.494,-3.171 16.735,6.156 36.719,11.003 47.478,23.315 7.566,8.658 2.139,28.671 2.51,43.614"
             style="fill:#ffffff;fill-opacity:1;fill-rule:nonzero;stroke:none"
             id="path226" />
        </g>
        <g
           id="g228"
           transform="translate(617.2581,487.5755)">
          <path
             d="m 0,0 c 9.595,4.213 15.337,6.375 18.876,7.398 0.423,0.122 3.415,0.98 6.742,3.052 1.967,1.225 2.944,2.185 3.62,3.017 0,0 1.544,1.903 2.278,4.557 1.57,5.677 -3.204,172.643 -3.503,183.035 -3.968,-1.752 -7.913,-3.492 -11.844,-5.225 -29.866,-13.169 -58.723,-25.857 -87.439,-38.844 -2.292,-1.036 -4.626,-4.88 -4.682,-7.468 -0.263,-12.025 0.27,-24.067 0.558,-38.047 11.877,4.918 23.242,9.624 34.562,14.311 4.252,1.761 8.499,3.52 12.765,5.286 4.265,1.766 8.55,3.54 12.876,5.332 2.132,0.883 4.276,1.77 6.431,2.663 1.936,0.801 3.88,1.606 5.841,2.418 C -1.946,94.323 -0.973,47.162 0,0"
             style="fill:#100f0d;fill-opacity:1;fill-rule:nonzero;stroke:none"
             id="path230" />
        </g>
        <g
           id="g232"
           transform="translate(608.3018,608.3619)">
          <path
             d="M 0,0 C -0.083,3.411 -0.18,7.122 -0.267,11.358 -1.892,10.671 -3.501,9.992 -5.102,9.316 -15.242,5.032 -24.943,0.934 -34.738,-3.203 c -1.399,-0.592 -2.801,-1.183 -4.205,-1.777 -2.159,-0.912 -4.325,-1.827 -6.506,-2.748 -0.044,-0.019 -0.088,-0.037 -0.132,-0.056 -4.676,-1.975 -9.423,-3.98 -14.286,-6.035 -0.354,-0.149 -0.703,-0.297 -1.058,-0.447 h -0.001 c 4.26,-1.701 8.21,-3.278 11.953,-4.772 0.738,-0.295 1.469,-0.587 2.192,-0.875 2.169,-0.866 4.272,-1.706 6.333,-2.53 0.942,-0.376 1.875,-0.749 2.801,-1.119 0.731,-0.293 1.459,-0.584 2.183,-0.873 0.35,-0.14 0.7,-0.28 1.048,-0.42 0.976,-0.39 1.947,-0.779 2.914,-1.166 1.104,-0.442 2.204,-0.883 3.304,-1.324 1.736,-0.695 3.39,-1.634 5.167,-2.188 12.327,-3.845 23.252,4.151 23.231,17.054 -0.002,1.528 -0.016,3.059 -0.039,4.617 -0.022,1.564 -0.053,3.155 -0.09,4.807 C 0.06,-2.525 0.047,-1.988 0.034,-1.444 0.023,-0.969 0.012,-0.487 0,0"
             style="fill:#100f0d;fill-opacity:1;fill-rule:nonzero;stroke:none"
             id="path234" />
        </g>
        <g
           id="g236"
           transform="translate(625.7385,482.3196)">
          <path
             d="m 0,0 c 0.005,-0.004 0.01,-0.007 0.014,-0.01 15.489,-11.627 30.703,-12.876 45.708,-4.183 1,0.58 2,1.204 2.998,1.871 1.653,1.106 3.304,2.332 4.953,3.679 C 51.908,2.574 50.153,3.67 48.407,4.645 31.528,14.074 15.49,12.248 0,0"
             style="fill:#100f0d;fill-opacity:1;fill-rule:nonzero;stroke:none"
             id="path238" />
        </g>
        <g
           id="g240"
           transform="translate(463.453,600.5827)">
          <path
             d="m 0,0 c 0.384,-13.444 7.112,-13.305 9.323,-13.259 2.53,0.052 5.482,0.814 8.773,2.265 5.929,2.614 11.793,5.257 18.335,8.213 L -0.24,10.681 C -0.167,6.835 -0.096,3.389 0,0"
             style="fill:#100f0d;fill-opacity:1;fill-rule:nonzero;stroke:none"
             id="path242" />
        </g>
        <g
           id="g244"
           transform="translate(522.5793,603.8064)">
          <path
             d="M 0,0 V 0 C -0.85,0.31 -1.696,0.618 -2.543,0.926 -1.696,0.618 -0.85,0.31 0,0"
             style="fill:#100f0d;fill-opacity:1;fill-rule:nonzero;stroke:none"
             id="path246" />
        </g>
        <g
           id="g248"
           transform="translate(372.9412,619.72)">
          <path
             d="M 0,0 V 0 C 0.087,-4.236 0.184,-7.947 0.267,-11.358 0.184,-7.947 0.087,-4.236 0,0"
             style="fill:#100f0d;fill-opacity:1;fill-rule:nonzero;stroke:none"
             id="path250" />
        </g>
        <g
           id="g252"
           transform="translate(338.47,605.1586)">
          <path
             d="M 0,0 C 9.795,4.138 19.496,8.236 29.637,12.519 19.496,8.236 9.795,4.138 0,0"
             style="fill:#100f0d;fill-opacity:1;fill-rule:nonzero;stroke:none"
             id="path254" />
        </g>
        <g
           id="g256"
           transform="translate(390.6591,482.3092)">
          <path
             d="M 0,0 C -0.002,-0.002 -0.004,-0.003 -0.006,-0.004 15.481,-11.628 30.698,-12.879 45.708,-4.182 30.703,-12.876 15.489,-11.627 0,0"
             style="fill:#100f0d;fill-opacity:1;fill-rule:nonzero;stroke:none"
             id="path258" />
        </g>
        <g
           id="g260"
           transform="translate(350.1776,578.8294)">
          <path
             d="M 0,0 C -1.777,0.554 -3.431,1.492 -5.168,2.188 -6.267,2.629 -7.368,3.07 -8.471,3.511 -7.368,3.07 -6.268,2.629 -5.168,2.188 -3.431,1.491 -1.777,0.554 0,-0.001 c 12.326,-3.844 23.251,4.152 23.231,17.054 -0.002,1.529 -0.017,3.06 -0.039,4.618 0.022,-1.558 0.037,-3.089 0.039,-4.618 C 23.251,4.151 12.326,-3.845 0,0"
             style="fill:#100f0d;fill-opacity:1;fill-rule:nonzero;stroke:none"
             id="path262" />
        </g>
        <g
           id="g264"
           transform="translate(413.6908,507.0063)">
          <path
             d="m 0,0 c -0.926,59.884 -2.237,119.765 -3.514,181.628 -3.968,-1.752 -7.913,-3.491 -11.844,-5.225 3.931,1.734 7.876,3.473 11.844,5.225 C -2.237,119.765 -0.926,59.885 0,0"
             style="fill:#100f0d;fill-opacity:1;fill-rule:nonzero;stroke:none"
             id="path266" />
        </g>
        <g
           id="g268"
           transform="translate(408.4636,498.3616)">
          <path
             d="M 0,0 C -2.408,-1.216 -4.88,-2.321 -7.423,-3.388 -4.88,-2.321 -2.408,-1.216 0,0 1.024,0.517 2.06,1.503 2.938,2.681 2.06,1.503 1.023,0.517 0,0"
             style="fill:#100f0d;fill-opacity:1;fill-rule:nonzero;stroke:none"
             id="path270" />
        </g>
        <g
           id="g272"
           transform="translate(416.0465,688.715)">
          <path
             d="m 0,0 c 0,0 0,0 -0.001,0 l 3.298,-159.831 c 0.149,-7.212 0.263,-12.694 0.749,-16.977 -0.486,4.283 -0.6,9.765 -0.748,16.977 z"
             style="fill:#100f0d;fill-opacity:1;fill-rule:nonzero;stroke:none"
             id="path274" />
        </g>
        <g
           id="g276"
           transform="translate(450.4625,490.6953)">
          <path
             d="M 0,0 C -0.715,-0.153 -1.05,-0.231 -1.285,-0.222 -1.05,-0.231 -0.715,-0.154 0,0"
             style="fill:#100f0d;fill-opacity:1;fill-rule:nonzero;stroke:none"
             id="path278" />
        </g>
        <g
           id="g280"
           transform="translate(526.0013,597.55)">
          <path
             d="m 0,0 c -10.759,-12.312 -30.743,-17.159 -47.478,-23.315 -5.521,-2.03 -13.185,1.765 -21.494,3.171 0.568,-27.519 0.579,-54.849 1.978,-82.107 0.138,-2.685 -0.044,-7.856 -2.963,-13.166 -7.554,-13.743 -27.028,-15.675 -29.988,-15.965 -14.18,-1.392 -34.159,3.275 -44.844,17.824 -5.94,8.087 -5.795,14.854 -7.072,77.821 -0.084,4.13 -0.223,10.875 -0.305,14.794 -28.391,-13.145 -47.458,8.422 -69.992,14.568 -1.603,0.437 -2.983,4.63 -3.087,7.134 -0.567,13.703 -1.315,27.456 -0.595,41.117 0.203,3.854 4.339,9.205 8.034,10.902 32.143,14.758 64.523,29.013 97.049,42.91 4.195,1.792 10.217,2.253 14.393,0.678 C -72.828,83.722 -39.427,70.695 -6.302,57.016 -2.39,55.4 -0.382,49.15 2.457,45.013 2.681,44.688 2.522,44.086 2.51,43.614 2.139,28.671 7.566,8.659 0,0 M 10.12,29.403 C 9.691,34.394 9.286,39.112 9.38,43.309 l 10e-4,0.013 c 0.092,0.895 0.336,3.272 -1.256,5.581 -0.67,0.976 -1.361,2.258 -2.093,3.616 -2.223,4.125 -4.743,8.8 -9.71,10.851 -30.491,12.592 -63.287,25.489 -100.261,39.429 -2.598,0.98 -5.693,1.462 -8.949,1.395 -3.699,-0.076 -7.453,-0.852 -10.569,-2.184 -34.853,-14.891 -66.653,-28.951 -97.219,-42.985 -5.515,-2.533 -11.665,-9.883 -12.029,-16.787 -0.659,-12.498 -0.12,-25.099 0.402,-37.284 l 0.189,-4.48 c 0.005,-0.115 0.561,-11.415 8.147,-13.481 6.17,-1.683 12.221,-4.733 18.627,-7.961 11.02,-5.554 22.414,-11.296 36.137,-11.012 3.495,0.072 6.93,0.53 10.36,1.384 l 0.108,-5.282 c 0.125,-6.065 0.23,-12.13 0.336,-18.195 0.35,-20.082 -2.497,-38.91 1.389,-52.892 1.376,-4.953 3.276,-8.411 4.309,-10.128 3.169,-5.268 6.762,-8.431 7.822,-9.331 4.589,-3.896 8.91,-5.474 14.169,-7.338 4.534,-1.607 18.986,-6.575 33.344,-4.102 4.092,0.705 8.025,1.988 8.215,2.05 4.646,1.536 8.109,3.349 10.312,4.564 5.013,2.765 10.39,5.732 14.194,11.507 3.666,5.567 4.858,11.196 4.517,17.845 -0.994,19.363 -1.289,39.192 -1.575,58.368 -0.072,4.806 -0.145,9.714 -0.229,14.637 3.858,-1.038 7.535,-1.954 11.262,-1.877 1.994,0.041 3.867,0.379 5.565,1.003 3.028,1.114 6.131,2.173 9.416,3.293 15.186,5.179 30.89,10.534 40.866,21.951 7.153,8.186 6.03,21.272 4.943,33.926"
             style="fill:#100f0d;fill-opacity:1;fill-rule:nonzero;stroke:none"
             id="path282" />
        </g>
        <g
           id="g284"
           transform="translate(481.5486,589.5886)">
          <path
             d="m 0,0 c -3.291,-1.451 -6.243,-2.213 -8.773,-2.265 -2.211,-0.046 -8.938,-0.185 -9.323,13.259 -0.096,3.389 -0.166,6.835 -0.239,10.681 L 18.336,8.214 C 11.794,5.257 5.929,2.614 0,0 m 27.146,12.303 c -18.477,6.783 -34.905,12.812 -52.55,19.29 v 0 -0.001 c 0.1,-4.869 0.172,-8.918 0.245,-12.606 0.057,-2.875 0.116,-5.532 0.192,-8.188 0.361,-12.667 6.125,-19.697 15.441,-19.932 3.604,-0.091 7.739,0.833 12.299,2.844 8.249,3.637 16.461,7.368 26.249,11.789 2.39,1.08 4.871,2.2 7.474,3.371 v 0.001 c -3.185,1.169 -6.293,2.31 -9.35,3.432"
             style="fill:#100f0d;fill-opacity:1;fill-rule:nonzero;stroke:none"
             id="path286" />
        </g>
        <g
           id="g288"
           transform="translate(510.5703,595.0881)">
          <path
             d="m 0,0 c -9.787,-4.422 -17.999,-8.153 -26.248,-11.79 -4.561,-2.011 -8.696,-2.934 -12.299,-2.843 -9.317,0.235 -15.081,7.264 -15.442,19.932 -0.076,2.656 -0.134,5.312 -0.192,8.188 -0.073,3.688 -0.144,7.736 -0.245,12.606 v 0 0.001 C -36.78,19.616 -20.353,13.586 -1.876,6.803 1.182,5.681 4.289,4.54 7.474,3.371 v 0 C 4.872,2.2 2.39,1.08 0,0 m -71.205,-115.09 c -0.999,-0.668 -1.998,-1.292 -2.998,-1.871 -15.01,-8.697 -30.227,-7.446 -45.714,4.178 0.002,0.001 0.004,0.003 0.006,0.004 -0.005,0.004 -0.01,0.007 -0.014,0.011 15.489,12.248 31.527,14.073 48.407,4.645 1.745,-0.975 3.501,-2.071 5.265,-3.288 -1.648,-1.347 -3.299,-2.573 -4.952,-3.679 m -65.961,146.644 c -2.155,-0.892 -4.299,-1.78 -6.431,-2.663 -4.326,-1.791 -8.611,-3.565 -12.876,-5.332 -4.266,-1.766 -8.513,-3.524 -12.765,-5.285 -11.32,-4.688 -22.685,-9.394 -34.562,-14.312 -0.288,13.981 -0.821,26.023 -0.558,38.048 0.056,2.588 2.39,6.431 4.682,7.468 28.717,12.986 57.573,25.675 87.439,38.843 3.931,1.734 7.876,3.474 11.844,5.226 1.276,-61.864 2.588,-121.745 3.514,-181.629 0,-0.053 0.001,-0.107 0.002,-0.161 10e-4,-0.037 -0.004,-0.078 -0.004,-0.116 -0.016,-1.729 -0.972,-3.923 -2.287,-5.686 -0.879,-1.179 -1.915,-2.165 -2.939,-2.682 -2.408,-1.216 -4.88,-2.32 -7.423,-3.388 -5.769,-2.422 -11.948,-4.636 -18.876,-7.398 v 0.001 l -2.919,141.484 c -1.96,-0.811 -3.905,-1.616 -5.841,-2.418 m -0.035,-26.142 c 0.022,-1.558 0.037,-3.089 0.04,-4.617 0.02,-12.903 -10.906,-20.899 -23.231,-17.054 -1.778,0.554 -3.432,1.492 -5.169,2.188 -1.099,0.441 -2.199,0.882 -3.303,1.324 -0.967,0.387 -1.938,0.776 -2.914,1.166 -0.348,0.14 -0.698,0.28 -1.049,0.42 -0.723,0.289 -1.451,0.58 -2.183,0.873 -0.925,0.37 -1.858,0.743 -2.801,1.119 -2.06,0.823 -4.163,1.664 -6.332,2.53 -0.724,0.288 -1.454,0.58 -2.192,0.875 -3.743,1.494 -7.693,3.071 -11.953,4.772 h 0.001 c 0.354,0.15 0.704,0.298 1.057,0.447 4.864,2.055 9.611,4.06 14.287,6.035 0.044,0.019 0.088,0.037 0.132,0.056 2.181,0.921 4.346,1.836 6.505,2.748 1.405,0.593 2.807,1.185 4.206,1.776 9.795,4.138 19.496,8.236 29.636,12.52 1.601,0.676 3.209,1.355 4.835,2.042 v 0 c 0.087,-4.236 0.184,-7.947 0.267,-11.358 0.012,-0.487 0.023,-0.969 0.034,-1.444 0.013,-0.544 0.026,-1.081 0.037,-1.611 0.037,-1.653 0.068,-3.244 0.09,-4.807 M 17.941,46.076 c 0.012,0.472 0.171,1.073 -0.053,1.399 -2.839,4.137 -4.847,10.387 -8.759,12.003 -33.125,13.679 -66.526,26.706 -100.062,39.35 -4.176,1.575 -10.198,1.114 -14.393,-0.678 -32.526,-13.897 -64.906,-28.153 -97.049,-42.91 -3.695,-1.697 -7.83,-7.048 -8.034,-10.902 -0.72,-13.661 0.028,-27.414 0.595,-41.117 0.104,-2.504 1.484,-6.697 3.087,-7.134 22.534,-6.146 41.601,-27.713 69.992,-14.569 0.106,-3.17 0.254,-8.371 0.305,-14.793 0.26,-32.654 0.391,-48.98 -0.086,-53.394 0,0 -1.23,-11.376 1.805,-17.532 1.812,-3.676 4.177,-7.623 4.177,-7.623 0,-0.001 0.001,-0.002 0.001,-0.002 0.954,-1.484 2.43,-3.522 4.563,-5.618 2.013,-1.979 6.6,-5.963 16.534,-8.945 6.891,-2.068 17.692,-5.309 31.003,-1.933 5.259,1.334 18.073,4.584 23.907,15.366 2.918,5.393 3.095,10.6 2.963,13.167 -1.399,27.258 -1.41,54.587 -1.978,82.107 8.309,-1.406 15.973,-5.202 21.494,-3.171 16.735,6.156 36.719,11.003 47.478,23.315 7.566,8.658 2.139,28.671 2.51,43.614"
             style="fill:#ffffff;fill-opacity:1;fill-rule:nonzero;stroke:none"
             id="path290" />
        </g>
        <g
           id="g292"
           transform="translate(382.1645,487.5755)">
          <path
             d="m 0,0 c 9.595,4.213 15.337,6.375 18.876,7.398 0.423,0.122 3.415,0.98 6.742,3.052 1.967,1.225 2.944,2.185 3.62,3.017 0,0 1.544,1.903 2.278,4.557 1.57,5.677 -3.204,172.643 -3.503,183.035 -3.968,-1.752 -7.913,-3.492 -11.844,-5.225 -29.866,-13.169 -58.723,-25.857 -87.439,-38.844 -2.292,-1.036 -4.626,-4.88 -4.682,-7.468 -0.263,-12.025 0.27,-24.067 0.558,-38.047 11.877,4.918 23.242,9.624 34.562,14.311 4.252,1.761 8.499,3.52 12.765,5.286 4.265,1.766 8.55,3.54 12.876,5.332 2.132,0.883 4.276,1.77 6.431,2.663 1.936,0.801 3.88,1.606 5.841,2.418 C -1.946,94.323 -0.973,47.162 0,0"
             style="fill:#100f0d;fill-opacity:1;fill-rule:nonzero;stroke:none"
             id="path294" />
        </g>
        <g
           id="g296"
           transform="translate(373.2081,608.3619)">
          <path
             d="M 0,0 C -0.083,3.411 -0.18,7.122 -0.267,11.358 -1.892,10.671 -3.501,9.992 -5.102,9.316 -15.242,5.032 -24.943,0.934 -34.738,-3.203 c -1.399,-0.592 -2.801,-1.183 -4.205,-1.777 -2.159,-0.912 -4.325,-1.827 -6.506,-2.748 -0.044,-0.019 -0.088,-0.037 -0.132,-0.056 -4.676,-1.975 -9.423,-3.98 -14.287,-6.035 -0.353,-0.149 -0.702,-0.297 -1.057,-0.447 h -0.001 c 4.26,-1.701 8.21,-3.278 11.953,-4.772 0.738,-0.295 1.469,-0.587 2.192,-0.875 2.169,-0.866 4.272,-1.706 6.333,-2.53 0.942,-0.376 1.875,-0.749 2.801,-1.119 0.731,-0.293 1.459,-0.584 2.183,-0.873 0.35,-0.14 0.7,-0.28 1.048,-0.42 0.976,-0.39 1.947,-0.779 2.914,-1.166 1.104,-0.442 2.204,-0.883 3.304,-1.324 1.736,-0.695 3.39,-1.634 5.167,-2.188 12.327,-3.845 23.252,4.151 23.231,17.054 -0.002,1.528 -0.016,3.059 -0.039,4.617 -0.022,1.564 -0.053,3.155 -0.09,4.807 C 0.06,-2.525 0.047,-1.988 0.034,-1.444 0.023,-0.969 0.012,-0.487 0,0"
             style="fill:#100f0d;fill-opacity:1;fill-rule:nonzero;stroke:none"
             id="path298" />
        </g>
        <g
           id="g300"
           transform="translate(390.6448,482.3196)">
          <path
             d="m 0,0 c 0.005,-0.004 0.01,-0.007 0.014,-0.01 15.489,-11.627 30.703,-12.876 45.708,-4.183 1,0.58 2,1.204 2.998,1.871 1.653,1.106 3.304,2.332 4.953,3.679 C 51.908,2.574 50.153,3.67 48.407,4.645 31.528,14.074 15.49,12.248 0,0"
             style="fill:#100f0d;fill-opacity:1;fill-rule:nonzero;stroke:none"
             id="path302" />
        </g>
      </g>
    </g>
  </g>
</svg>
